<?xml version="1.0" encoding="utf-8"?>

<!-- Uploaded to: SVG Repo, www.svgrepo.com, Generator: SVG Repo Mixer Tools -->
<svg version="1.1" id="Icons" xmlns="http://www.w3.org/2000/svg" xmlns:xlink="http://www.w3.org/1999/xlink" 
	 viewBox="0 0 32 32" xml:space="preserve">
<style type="text/css">
	.st0{fill:none;stroke:#000000;stroke-width:2;stroke-linecap:round;stroke-linejoin:round;stroke-miterlimit:10;}
	.st1{fill:none;stroke:#000000;stroke-width:2;stroke-linejoin:round;stroke-miterlimit:10;}
</style>
<line class="st0" x1="8" y1="25" x2="14" y2="25"/>
<path class="st0" d="M14,3v1.3C14,5.24,13.24,6,12.3,6H9.7C8.76,6,8,5.24,8,4.3V3"/>
<path class="st0" d="M21.42,8c-3.13,0-5.74,2.16-6.41,5.06h0c-2.21,0-4.02,1.79-4.02,3.97S12.81,21,15.02,21h6.4
	c3.63,0,6.58-2.91,6.58-6.5S25.06,8,21.42,8z"/>
<path class="st0" d="M18,21v6c0,1.1-0.9,2-2,2H6c-1.1,0-2-0.9-2-2V5c0-1.1,0.9-2,2-2h10c1.1,0,2,0.9,2,2v3.95"/>
</svg>